# OBJ written from /Users/keenan/Desktop/WovenCube.obj
# Units	meters

o Mesh
v -0.5 -0.166667 -0.5
v -0.166667 -0.166667 -0.5
v 0.166667 -0.166667 -0.51
v 0.5 -0.166667 -0.5
v 0.454 -0.166667 -0.166667
v 0.55 -0.166667 0.166667
v 0.5 -0.166667 0.5
v 0.166667 -0.166667 0.49
v -0.166667 -0.166667 0.516
v -0.5 -0.166667 0.5
v -0.466 -0.166667 0.166667
v -0.544 -0.166667 -0.166667
v -0.5 0.166667 -0.5
v -0.166667 0.166667 -0.516
v 0.166667 0.166667 -0.5
v 0.5 0.166667 -0.5
v 0.564 0.166667 -0.166667
v 0.434 0.166667 0.166667
v 0.5 0.166667 0.5
v 0.166667 0.166667 0.5
v -0.166667 0.166667 0.5
v -0.5 0.166667 0.5
v -0.572 0.166667 0.166667
v -0.458 0.166667 -0.166667
v 0.5 -0.5 -0.166667
v 0.5 -0.5 0.166667
v -0.5 -0.5 0.166667
v -0.5 -0.5 -0.166667
v -0.166667 -0.548 -0.166667
v -0.166667 -0.448 0.166667
v 0.166667 -0.434 -0.166667
v 0.166667 -0.564 0.166667
v 0.5 -0.166667 -0.166667
v 0.5 -0.166667 0.166667
v -0.5 -0.166667 0.166667
v -0.5 -0.166667 -0.166667
v 0.5 0.166667 -0.166667
v 0.5 0.166667 0.166667
v -0.5 0.166667 0.166667
v -0.5 0.166667 -0.166667
v 0.5 0.5 -0.166667
v 0.5 0.5 0.166667
v -0.5 0.5 0.166667
v -0.5 0.5 -0.166667
v -0.166667 0.5 -0.166667
v -0.166667 0.5 0.166667
v 0.166667 0.5 -0.166667
v 0.166667 0.5 0.166667
v -0.166667 -0.5 -0.5
v 0.166667 -0.5 -0.5
v 0.166667 -0.5 0.5
v -0.166667 -0.5 0.5
v -0.166667 -0.5 -0.166667
v -0.166667 -0.5 0.166667
v 0.166667 -0.5 -0.166667
v 0.166667 -0.5 0.166667
v -0.166667 -0.166667 -0.544
v 0.166667 -0.166667 -0.462
v 0.166667 -0.166667 0.556
v -0.166667 -0.166667 0.456
v -0.166667 0.166667 -0.464
v 0.166667 0.166667 -0.562
v 0.166667 0.166667 0.452
v -0.166667 0.166667 0.548
v -0.166667 0.5 -0.5
v 0.166667 0.5 -0.5
v 0.166667 0.5 0.5
v -0.166667 0.5 0.5
v -0.166667 0.556 -0.166667
v -0.166667 0.462 0.166667
v 0.166667 0.458 -0.166667
v 0.166667 0.546 0.166667
v -0.356245 -0.166667 0.530416
v -0.49908 -0.166667 0.353207
v -0.505619 -0.166667 1.67838e-08
v -0.547718 -0.166667 -0.354257
v -0.351339 -0.166667 -0.520119
v 1.67638e-08 -0.166667 -0.505625
v 0.356935 -0.166667 -0.526368
v 0.492075 -0.166667 -0.353632
v 0.502246 -0.166667 1.67905e-08
v 0.551797 -0.166667 0.354906
v 0.350947 -0.166667 0.514097
v 1.67662e-08 -0.166667 0.503375
v -0.563956 0.166667 0.354404
v -0.516833 0.166667 1.67941e-08
v -0.493018 0.166667 -0.353233
v -0.356713 0.166667 -0.529767
v 1.67649e-08 0.166667 -0.508999
v 0.350014 0.166667 -0.519645
v 0.560791 0.166667 -0.354355
v 0.498879 0.166667 1.68118e-08
v 0.480264 0.166667 0.354367
v 0.358052 0.166667 0.520633
v 1.67638e-08 0.166667 0.5
v -0.34948 0.166667 0.520596
v -0.520708 -0.357272 0.166667
v -0.5 1.67638e-08 0.166667
v -0.520833 0.354167 0.166667
v -0.354167 0.520833 0.166667
v 1.67638e-08 0.5 0.166667
v 0.354167 0.520833 0.166667
v 0.520833 0.354167 0.166667
v 0.5 1.67638e-08 0.166667
v 0.520645 -0.350014 0.166667
v 0.354355 -0.560016 0.166667
v 1.68002e-08 -0.506733 0.166667
v -0.354292 -0.487965 0.166667
v -0.520726 -0.351075 -0.166667
v -0.5 1.67638e-08 -0.166667
v -0.520833 0.354167 -0.166667
v -0.354167 0.520833 -0.166667
v 1.67638e-08 0.5 -0.166667
v 0.354167 0.520833 -0.166667
v 0.520833 0.354167 -0.166667
v 0.5 1.67638e-08 -0.166667
v 0.520633 -0.358052 -0.166667
v 0.354367 -0.481151 -0.166667
v 1.67974e-08 -0.4899 -0.166667
v -0.354274 -0.551822 -0.166667
v 0.166667 -0.354312 0.555291
v 0.166667 -0.520688 0.350546
v 0.166667 -0.5 1.67638e-08
v 0.166667 -0.520766 -0.356467
v 0.166667 -0.354234 -0.495816
v 0.166667 1.67881e-08 -0.513474
v 0.166667 0.356899 -0.558029
v 0.166667 0.494331 -0.350214
v 0.166667 0.502247 1.67864e-08
v 0.166667 0.549224 0.357157
v 0.166667 0.351299 0.490515
v 0.166667 1.67975e-08 0.504491
v -0.166667 0.356586 0.550502
v -0.166667 1.67884e-08 0.502246
v -0.166667 -0.354257 0.493304
v -0.166667 -0.520743 0.356815
v -0.166667 -0.5 1.67638e-08
v -0.166667 -0.520743 -0.351339
v -0.166667 -0.354257 -0.547836
v -0.166667 1.67845e-08 -0.504495
v -0.166667 0.350596 -0.49782
v -0.166667 0.554665 -0.35651
v -0.166667 0.510108 1.67934e-08
v -0.166667 0.496045 0.351133
v -0.439666 -0.166667 0.524928
v -0.510333 -0.166667 0.436042
v -0.480033 -0.166667 0.261431
v -0.481571 -0.166667 0.0821537
v -0.526953 -0.166667 -0.0820861
v -0.551663 -0.166667 -0.261972
v -0.533129 -0.166667 -0.437419
v -0.43392 -0.166667 -0.520071
v -0.260307 -0.166667 -0.511146
v -0.0822687 -0.166667 -0.501368
v 0.0819582 -0.166667 -0.507192
v 0.263575 -0.166667 -0.520416
v 0.44042 -0.166667 -0.522965
v 0.507147 -0.166667 -0.436549
v 0.469518 -0.166667 -0.261691
v 0.473015 -0.166667 -0.0821249
v 0.528908 -0.166667 0.0820405
v 0.557573 -0.166667 0.262349
v 0.535079 -0.166667 0.438185
v 0.43343 -0.166667 0.517249
v 0.260087 -0.166667 0.502227
v 0.0822906 -0.166667 0.494516
v -0.0819934 -0.166667 0.509629
v -0.263163 -0.166667 0.52625
v -0.575848 0.166667 0.262027
v -0.548461 0.166667 0.0820612
v -0.48199 0.166667 -0.0821339
v -0.47141 0.166667 -0.261466
v -0.507449 0.166667 -0.436114
v -0.440268 0.166667 -0.524545
v -0.263437 0.166667 -0.52551
v -0.0819691 0.166667 -0.51223
v 0.0823427 0.166667 -0.502923
v 0.259537 0.166667 -0.510641
v 0.432343 0.166667 -0.519744
v 0.539376 0.166667 -0.43762
v 0.570679 0.166667 -0.262021
v 0.535592 0.166667 -0.0820509
v 0.459748 0.166667 0.0820699
v 0.451799 0.166667 0.262138
v 0.501792 0.166667 0.437362
v 0.441647 0.166667 0.520237
v 0.264244 0.166667 0.51189
v 0.0818995 0.166667 0.498803
v -0.0823739 0.166667 0.498776
v -0.259226 0.166667 0.511767
v -0.431853 0.166667 0.520261
v -0.540715 0.166667 0.437608
v -0.511924 -0.263784 0.166667
v -0.498796 -0.0819418 0.166667
v -0.498778 0.0821118 0.166667
v -0.511959 0.261959 0.166667
v -0.520513 0.43718 0.166667
v -0.43718 0.520513 0.166667
v -0.261959 0.511959 0.166667
v -0.0821118 0.498778 0.166667
v 0.0821118 0.498778 0.166667
v 0.261959 0.511959 0.166667
v 0.43718 0.520513 0.166667
v 0.520513 0.43718 0.166667
v 0.511959 0.261959 0.166667
v 0.498778 0.0821118 0.166667
v 0.498775 -0.0823437 0.166667
v 0.511801 -0.259536 0.166667
v 0.520306 -0.432398 0.166667
v 0.437543 -0.538938 0.166667
v 0.262013 -0.569766 0.166667
v 0.082061 -0.539165 0.166667
v -0.0820772 -0.471543 0.166667
v -0.262089 -0.463542 0.166667
v -0.437278 -0.505231 0.166667
v -0.520336 -0.440812 0.166667
v -0.511861 -0.260153 -0.166667
v -0.498774 -0.082284 -0.166667
v -0.498778 0.0821118 -0.166667
v -0.511959 0.261959 -0.166667
v -0.520513 0.43718 -0.166667
v -0.43718 0.520513 -0.166667
v -0.261959 0.511959 -0.166667
v -0.0821118 0.498778 -0.166667
v 0.0821118 0.498778 -0.166667
v 0.261959 0.511959 -0.166667
v 0.43718 0.520513 -0.166667
v 0.520513 0.43718 -0.166667
v 0.511959 0.261959 -0.166667
v 0.498778 0.0821118 -0.166667
v 0.498803 -0.0818995 -0.166667
v 0.51189 -0.264244 -0.166667
v 0.52024 -0.441596 -0.166667
v 0.437356 -0.50227 -0.166667
v 0.262129 -0.452837 -0.166667
v 0.0820819 -0.455681 -0.166667
v -0.0820646 -0.522101 -0.166667
v -0.261991 -0.55722 -0.166667
v -0.437425 -0.535208 -0.166667
v -0.520385 -0.433506 -0.166667
v 0.166667 -0.437474 0.536721
v 0.166667 -0.520354 0.432996
v 0.166667 -0.511833 0.259845
v 0.166667 -0.498775 0.0823138
v 0.166667 -0.49879 -0.0819856
v 0.166667 -0.511948 -0.26331
v 0.166667 -0.520415 -0.439937
v 0.166667 -0.437216 -0.508771
v 0.166667 -0.262046 -0.47544
v 0.166667 -0.0820848 -0.482827
v 0.166667 0.0819281 -0.541051
v 0.166667 0.263494 -0.567176
v 0.166667 0.440525 -0.537862
v 0.166667 0.50803 -0.432634
v 0.166667 0.473052 -0.259685
v 0.166667 0.475324 -0.0823213
v 0.166667 0.52656 0.0819191
v 0.166667 0.553929 0.26367
v 0.166667 0.533772 0.440799
v 0.166667 0.433806 0.506314
v 0.166667 0.260326 0.46738
v 0.166667 0.0822534 0.472836
v 0.166667 -0.08207 0.533451
v 0.166667 -0.261995 0.562756
v -0.166667 0.263333 0.555761
v -0.166667 0.0819486 0.52773
v -0.166667 -0.0820913 0.474194
v -0.166667 -0.262056 0.471338
v -0.166667 -0.437237 0.507715
v -0.166667 -0.520385 0.440264
v -0.166667 -0.511939 0.263515
v -0.166667 -0.498793 0.0819667
v -0.166667 -0.498774 -0.0822692
v -0.166667 -0.511873 -0.260306
v -0.166667 -0.520417 -0.433914
v -0.166667 -0.437378 -0.533193
v -0.166667 -0.261972 -0.551803
v -0.166667 -0.0820852 -0.526437
v -0.166667 0.0823011 -0.479865
v -0.166667 0.259905 -0.478263
v -0.166667 0.433055 -0.509647
v -0.166667 0.536315 -0.440075
v -0.166667 0.562108 -0.263276
v -0.166667 0.536006 -0.0819526
v -0.166667 0.481259 0.0822644
v -0.166667 0.475784 0.260224
v -0.166667 0.508802 0.43362
v -0.166667 0.440184 0.534408
vn 0 -1 0
vn 0 0 -1
vn 1 0 0
vt 0.416667 0.444444
vt 0.333333 0.555556
vt 0.333333 0.222222
vt 0.333333 0.111111
vt 0.416667 0.555556
vt 0.333333 0.777778
mtllib WovenCube.mtl
usemtl Default
g Default
f 73/1/1 145/1/1 10/1/1 146/1/1 74/1/1 147/1/1 11/1/1 148/1/1 75/1/1 149/1/1 12/1/1 150/1/1 76/1/1 151/1/1 1/1/1 152/1/1 77/1/1 153/1/1 2/1/1 154/1/1 78/1/1 155/1/1 3/1/1 156/1/1 79/1/1 157/1/1 4/1/1 158/1/1 80/1/1 159/1/1 5/1/1 160/1/1 81/1/1 161/1/1 6/1/1 162/1/1 82/1/1 163/1/1 7/1/1 164/1/1 83/1/1 165/1/1 8/1/1 166/1/1 84/1/1 167/1/1 9/1/1 168/1/1 73/1/1 145/1/1 10/1/1
f 85/2/1 169/2/1 23/2/1 170/2/1 86/2/1 171/2/1 24/2/1 172/2/1 87/2/1 173/2/1 13/2/1 174/2/1 88/2/1 175/2/1 14/2/1 176/2/1 89/2/1 177/2/1 15/2/1 178/2/1 90/2/1 179/2/1 16/2/1 180/2/1 91/2/1 181/2/1 17/2/1 182/2/1 92/2/1 183/2/1 18/2/1 184/2/1 93/2/1 185/2/1 19/2/1 186/2/1 94/2/1 187/2/1 20/2/1 188/2/1 95/2/1 189/2/1 21/2/1 190/2/1 96/2/1 191/2/1 22/2/1 192/2/1 85/2/1 169/2/1 23/2/1
f 97/3/2 193/3/2 35/3/2 194/3/2 98/3/2 195/3/2 39/3/2 196/3/2 99/3/2 197/3/2 43/3/2 198/3/2 100/3/2 199/3/2 46/3/2 200/3/2 101/3/2 201/3/2 48/3/2 202/3/2 102/3/2 203/3/2 42/3/2 204/3/2 103/3/2 205/3/2 38/3/2 206/3/2 104/3/2 207/3/2 34/3/2 208/3/2 105/3/2 209/3/2 26/3/2 210/3/2 106/3/2 211/3/2 32/3/2 212/3/2 107/3/2 213/3/2 30/3/2 214/3/2 108/3/2 215/3/2 27/3/2 216/3/2 97/3/2 193/3/2 35/3/2
f 109/4/2 217/4/2 36/4/2 218/4/2 110/4/2 219/4/2 40/4/2 220/4/2 111/4/2 221/4/2 44/4/2 222/4/2 112/4/2 223/4/2 45/4/2 224/4/2 113/4/2 225/4/2 47/4/2 226/4/2 114/4/2 227/4/2 41/4/2 228/4/2 115/4/2 229/4/2 37/4/2 230/4/2 116/4/2 231/4/2 33/4/2 232/4/2 117/4/2 233/4/2 25/4/2 234/4/2 118/4/2 235/4/2 31/4/2 236/4/2 119/4/2 237/4/2 29/4/2 238/4/2 120/4/2 239/4/2 28/4/2 240/4/2 109/4/2 217/4/2 36/4/2
f 121/5/3 241/5/3 51/5/3 242/5/3 122/5/3 243/5/3 56/5/3 244/5/3 123/5/3 245/5/3 55/5/3 246/5/3 124/5/3 247/5/3 50/5/3 248/5/3 125/5/3 249/5/3 58/5/3 250/5/3 126/5/3 251/5/3 62/5/3 252/5/3 127/5/3 253/5/3 66/5/3 254/5/3 128/5/3 255/5/3 71/5/3 256/5/3 129/5/3 257/5/3 72/5/3 258/5/3 130/5/3 259/5/3 67/5/3 260/5/3 131/5/3 261/5/3 63/5/3 262/5/3 132/5/3 263/5/3 59/5/3 264/5/3 121/5/3 241/5/3 51/5/3
f 133/6/3 265/6/3 64/6/3 266/6/3 134/6/3 267/6/3 60/6/3 268/6/3 135/6/3 269/6/3 52/6/3 270/6/3 136/6/3 271/6/3 54/6/3 272/6/3 137/6/3 273/6/3 53/6/3 274/6/3 138/6/3 275/6/3 49/6/3 276/6/3 139/6/3 277/6/3 57/6/3 278/6/3 140/6/3 279/6/3 61/6/3 280/6/3 141/6/3 281/6/3 65/6/3 282/6/3 142/6/3 283/6/3 69/6/3 284/6/3 143/6/3 285/6/3 70/6/3 286/6/3 144/6/3 287/6/3 68/6/3 288/6/3 133/6/3 265/6/3 64/6/3
